<svg version="1.1" xmlns="http://www.w3.org/2000/svg" xmlns:xlink="http://www.w3.org/1999/xlink" width="600" height="400"><defs/><g transform="scale(1,1)"><g id="background-611ca9b0"><rect fill="white" stroke="none" x="0" y="0" width="600" height="400" class="dcg-svg-background"/></g><g id="background-images-611ca9b0"/><g id="graphpaper-611ca9b0"><g id="grid-611ca9b0"><g><path fill="none" stroke="rgb(0,0,0)" class="dcg-svg-minor-gridline" paint-order="fill stroke markers" d=" M 30.5 0 L 30.5 400" stroke-opacity="0.12" stroke-miterlimit="10" stroke-dasharray=""/><path fill="none" stroke="rgb(0,0,0)" class="dcg-svg-minor-gridline" paint-order="fill stroke markers" d=" M 60.5 0 L 60.5 400" stroke-opacity="0.12" stroke-miterlimit="10" stroke-dasharray=""/><path fill="none" stroke="rgb(0,0,0)" class="dcg-svg-minor-gridline" paint-order="fill stroke markers" d=" M 89.5 0 L 89.5 400" stroke-opacity="0.12" stroke-miterlimit="10" stroke-dasharray=""/><path fill="none" stroke="rgb(0,0,0)" class="dcg-svg-minor-gridline" paint-order="fill stroke markers" d=" M 119.5 0 L 119.5 400" stroke-opacity="0.12" stroke-miterlimit="10" stroke-dasharray=""/><path fill="none" stroke="rgb(0,0,0)" class="dcg-svg-minor-gridline" paint-order="fill stroke markers" d=" M 150.5 0 L 150.5 400" stroke-opacity="0.12" stroke-miterlimit="10" stroke-dasharray=""/><path fill="none" stroke="rgb(0,0,0)" class="dcg-svg-minor-gridline" paint-order="fill stroke markers" d=" M 180.5 0 L 180.5 400" stroke-opacity="0.12" stroke-miterlimit="10" stroke-dasharray=""/><path fill="none" stroke="rgb(0,0,0)" class="dcg-svg-minor-gridline" paint-order="fill stroke markers" d=" M 210.5 0 L 210.5 400" stroke-opacity="0.12" stroke-miterlimit="10" stroke-dasharray=""/><path fill="none" stroke="rgb(0,0,0)" class="dcg-svg-minor-gridline" paint-order="fill stroke markers" d=" M 240.5 0 L 240.5 400" stroke-opacity="0.12" stroke-miterlimit="10" stroke-dasharray=""/><path fill="none" stroke="rgb(0,0,0)" class="dcg-svg-minor-gridline" paint-order="fill stroke markers" d=" M 270.5 0 L 270.5 400" stroke-opacity="0.12" stroke-miterlimit="10" stroke-dasharray=""/><path fill="none" stroke="rgb(0,0,0)" class="dcg-svg-minor-gridline" paint-order="fill stroke markers" d=" M 330.5 0 L 330.5 400" stroke-opacity="0.12" stroke-miterlimit="10" stroke-dasharray=""/><path fill="none" stroke="rgb(0,0,0)" class="dcg-svg-minor-gridline" paint-order="fill stroke markers" d=" M 360.5 0 L 360.5 400" stroke-opacity="0.12" stroke-miterlimit="10" stroke-dasharray=""/><path fill="none" stroke="rgb(0,0,0)" class="dcg-svg-minor-gridline" paint-order="fill stroke markers" d=" M 390.5 0 L 390.5 400" stroke-opacity="0.12" stroke-miterlimit="10" stroke-dasharray=""/><path fill="none" stroke="rgb(0,0,0)" class="dcg-svg-minor-gridline" paint-order="fill stroke markers" d=" M 420.5 0 L 420.5 400" stroke-opacity="0.12" stroke-miterlimit="10" stroke-dasharray=""/><path fill="none" stroke="rgb(0,0,0)" class="dcg-svg-minor-gridline" paint-order="fill stroke markers" d=" M 450.5 0 L 450.5 400" stroke-opacity="0.12" stroke-miterlimit="10" stroke-dasharray=""/><path fill="none" stroke="rgb(0,0,0)" class="dcg-svg-minor-gridline" paint-order="fill stroke markers" d=" M 480.5 0 L 480.5 400" stroke-opacity="0.12" stroke-miterlimit="10" stroke-dasharray=""/><path fill="none" stroke="rgb(0,0,0)" class="dcg-svg-minor-gridline" paint-order="fill stroke markers" d=" M 510.5 0 L 510.5 400" stroke-opacity="0.12" stroke-miterlimit="10" stroke-dasharray=""/><path fill="none" stroke="rgb(0,0,0)" class="dcg-svg-minor-gridline" paint-order="fill stroke markers" d=" M 540.5 0 L 540.5 400" stroke-opacity="0.12" stroke-miterlimit="10" stroke-dasharray=""/><path fill="none" stroke="rgb(0,0,0)" class="dcg-svg-minor-gridline" paint-order="fill stroke markers" d=" M 570.5 0 L 570.5 400" stroke-opacity="0.12" stroke-miterlimit="10" stroke-dasharray=""/><path fill="none" stroke="rgb(0,0,0)" class="dcg-svg-minor-gridline" paint-order="fill stroke markers" d=" M 0 386.5 L 600 386.5" stroke-opacity="0.12" stroke-miterlimit="10" stroke-dasharray=""/><path fill="none" stroke="rgb(0,0,0)" class="dcg-svg-minor-gridline" paint-order="fill stroke markers" d=" M 0 360.5 L 600 360.5" stroke-opacity="0.12" stroke-miterlimit="10" stroke-dasharray=""/><path fill="none" stroke="rgb(0,0,0)" class="dcg-svg-minor-gridline" paint-order="fill stroke markers" d=" M 0 333.5 L 600 333.5" stroke-opacity="0.12" stroke-miterlimit="10" stroke-dasharray=""/><path fill="none" stroke="rgb(0,0,0)" class="dcg-svg-minor-gridline" paint-order="fill stroke markers" d=" M 0 306.5 L 600 306.5" stroke-opacity="0.12" stroke-miterlimit="10" stroke-dasharray=""/><path fill="none" stroke="rgb(0,0,0)" class="dcg-svg-minor-gridline" paint-order="fill stroke markers" d=" M 0 280.5 L 600 280.5" stroke-opacity="0.12" stroke-miterlimit="10" stroke-dasharray=""/><path fill="none" stroke="rgb(0,0,0)" class="dcg-svg-minor-gridline" paint-order="fill stroke markers" d=" M 0 253.5 L 600 253.5" stroke-opacity="0.12" stroke-miterlimit="10" stroke-dasharray=""/><path fill="none" stroke="rgb(0,0,0)" class="dcg-svg-minor-gridline" paint-order="fill stroke markers" d=" M 0 226.5 L 600 226.5" stroke-opacity="0.12" stroke-miterlimit="10" stroke-dasharray=""/><path fill="none" stroke="rgb(0,0,0)" class="dcg-svg-minor-gridline" paint-order="fill stroke markers" d=" M 0 173.5 L 600 173.5" stroke-opacity="0.12" stroke-miterlimit="10" stroke-dasharray=""/><path fill="none" stroke="rgb(0,0,0)" class="dcg-svg-minor-gridline" paint-order="fill stroke markers" d=" M 0 146.5 L 600 146.5" stroke-opacity="0.12" stroke-miterlimit="10" stroke-dasharray=""/><path fill="none" stroke="rgb(0,0,0)" class="dcg-svg-minor-gridline" paint-order="fill stroke markers" d=" M 0 119.5 L 600 119.5" stroke-opacity="0.12" stroke-miterlimit="10" stroke-dasharray=""/><path fill="none" stroke="rgb(0,0,0)" class="dcg-svg-minor-gridline" paint-order="fill stroke markers" d=" M 0 93.5 L 600 93.5" stroke-opacity="0.12" stroke-miterlimit="10" stroke-dasharray=""/><path fill="none" stroke="rgb(0,0,0)" class="dcg-svg-minor-gridline" paint-order="fill stroke markers" d=" M 0 66.5 L 600 66.5" stroke-opacity="0.12" stroke-miterlimit="10" stroke-dasharray=""/><path fill="none" stroke="rgb(0,0,0)" class="dcg-svg-minor-gridline" paint-order="fill stroke markers" d=" M 0 39.5 L 600 39.5" stroke-opacity="0.12" stroke-miterlimit="10" stroke-dasharray=""/><path fill="none" stroke="rgb(0,0,0)" class="dcg-svg-minor-gridline" paint-order="fill stroke markers" d=" M 0 13.5 L 600 13.5" stroke-opacity="0.12" stroke-miterlimit="10" stroke-dasharray=""/><path fill="none" stroke="rgb(0,0,0)" class="dcg-svg-major-gridline" paint-order="fill stroke markers" d=" M 150.5 0 L 150.5 400" stroke-opacity="0.31818181818181823" stroke-miterlimit="10" stroke-dasharray=""/><path fill="none" stroke="rgb(0,0,0)" class="dcg-svg-major-gridline" paint-order="fill stroke markers" d=" M 450.5 0 L 450.5 400" stroke-opacity="0.31818181818181823" stroke-miterlimit="10" stroke-dasharray=""/><path fill="none" stroke="rgb(0,0,0)" class="dcg-svg-major-gridline" paint-order="fill stroke markers" d=" M 0 333.5 L 600 333.5" stroke-opacity="0.31818181818181823" stroke-miterlimit="10" stroke-dasharray=""/><path fill="none" stroke="rgb(0,0,0)" class="dcg-svg-major-gridline" paint-order="fill stroke markers" d=" M 0 66.5 L 600 66.5" stroke-opacity="0.31818181818181823" stroke-miterlimit="10" stroke-dasharray=""/></g></g><g id="axis-611ca9b0"><g id="yaxis-611ca9b0"><title>Y axis</title><g><path fill="none" stroke="rgb(0,0,0)" class="dcg-svg-axis-line" paint-order="fill stroke markers" d=" M 299.75 0 L 299.75 400" stroke-opacity="0.9" stroke-miterlimit="10" stroke-width="1.5" stroke-dasharray=""/></g></g><g id="xaxis-611ca9b0"><title>X axis</title><g><path fill="none" stroke="rgb(0,0,0)" class="dcg-svg-axis-line" paint-order="fill stroke markers" d=" M 0 199.75 L 600 199.75" stroke-opacity="0.9" stroke-miterlimit="10" stroke-width="1.5" stroke-dasharray=""/></g></g><g><g class="dcg-svg-axis-value"><text fill="none" stroke="#ffffff" font-family="Arial" font-size="14px" font-style="normal" font-weight="normal" text-decoration="normal" x="291.10693359375" y="215.808" text-anchor="middle" stroke-miterlimit="2" stroke-width="3" stroke-dasharray="">0</text><text fill="#000000" stroke="none" font-family="Arial" font-size="14px" font-style="normal" font-weight="normal" text-decoration="normal" x="291.10693359375" y="215.808" text-anchor="middle">0</text></g><g class="dcg-svg-axis-value dcg-svg-offcenter-axis-value"><text fill="none" stroke="#ffffff" font-family="Arial" font-size="14px" font-style="normal" font-weight="normal" text-decoration="normal" x="9.22412109375" y="215.808" text-anchor="middle" stroke-miterlimit="2" stroke-width="3" stroke-dasharray="">-1</text><text fill="#000000" stroke="none" font-family="Arial" font-size="14px" font-style="normal" font-weight="normal" text-decoration="normal" x="9.22412109375" y="215.808" text-anchor="middle">-1</text></g><g class="dcg-svg-axis-value"><text fill="none" stroke="#ffffff" font-family="Arial" font-size="14px" font-style="normal" font-weight="normal" text-decoration="normal" x="147.6689453125" y="215.808" text-anchor="middle" stroke-miterlimit="2" stroke-width="3" stroke-dasharray="">-0.5</text><text fill="#000000" stroke="none" font-family="Arial" font-size="14px" font-style="normal" font-weight="normal" text-decoration="normal" x="147.6689453125" y="215.808" text-anchor="middle">-0.5</text></g><g class="dcg-svg-axis-value"><text fill="none" stroke="#ffffff" font-family="Arial" font-size="14px" font-style="normal" font-weight="normal" text-decoration="normal" x="450" y="215.808" text-anchor="middle" stroke-miterlimit="2" stroke-width="3" stroke-dasharray="">0.5</text><text fill="#000000" stroke="none" font-family="Arial" font-size="14px" font-style="normal" font-weight="normal" text-decoration="normal" x="450" y="215.808" text-anchor="middle">0.5</text></g><g class="dcg-svg-axis-value dcg-svg-offcenter-axis-value"><text fill="none" stroke="#ffffff" font-family="Arial" font-size="14px" font-style="normal" font-weight="normal" text-decoration="normal" x="593.10693359375" y="215.808" text-anchor="middle" stroke-miterlimit="2" stroke-width="3" stroke-dasharray="">1</text><text fill="#000000" stroke="none" font-family="Arial" font-size="14px" font-style="normal" font-weight="normal" text-decoration="normal" x="593.10693359375" y="215.808" text-anchor="middle">1</text></g><g class="dcg-svg-axis-value"><text fill="none" stroke="#ffffff" font-family="Arial" font-size="14px" font-style="normal" font-weight="normal" text-decoration="normal" x="288.77587890625" y="337.14133333333336" text-anchor="middle" stroke-miterlimit="2" stroke-width="3" stroke-dasharray="">-1</text><text fill="#000000" stroke="none" font-family="Arial" font-size="14px" font-style="normal" font-weight="normal" text-decoration="normal" x="288.77587890625" y="337.14133333333336" text-anchor="middle">-1</text></g><g class="dcg-svg-axis-value"><text fill="none" stroke="#ffffff" font-family="Arial" font-size="14px" font-style="normal" font-weight="normal" text-decoration="normal" x="291.10693359375" y="70.47466666666666" text-anchor="middle" stroke-miterlimit="2" stroke-width="3" stroke-dasharray="">1</text><text fill="#000000" stroke="none" font-family="Arial" font-size="14px" font-style="normal" font-weight="normal" text-decoration="normal" x="291.10693359375" y="70.47466666666666" text-anchor="middle">1</text></g></g></g></g><g id="expressions-611ca9b0"><g id="sketch-611ca9b0"><title>Expression 1</title><path fill="#2d70b3" stroke="none" paint-order="stroke fill markers" d="" fill-opacity="0.4"/><g><path fill="none" stroke="#2d70b3" class="dcg-svg-curve" paint-order="fill stroke markers" d=" M 0 312.19613130771955 L 0 312.19613130771955 L 62.6953125 327.11541682383853 L 74.12109375 329.42725308134163 L 83.349609375 331.03167795370746 L 91.259765625 332.14511213520495 L 98.14453125 332.8566493033319 L 104.296875 333.23777502877635 L 109.86328125 333.3300520181282 L 114.990234375 333.16173568595514 L 119.82421875 332.7416386446796 L 124.365234375 332.07866779712685 L 128.61328125 331.1879577995091 L 132.71484375 330.0450776564251 L 136.5234375 328.70239907349753 L 140.33203125 327.0547501728402 L 143.994140625 325.1484237728207 L 147.65625 322.8892695785105 L 151.318359375 320.2366518687174 L 154.98046875 317.14559155883927 L 158.642578125 313.5664260764967 L 162.158203125 309.62053382771296 L 165.52734375 305.3208113942836 L 168.896484375 300.4627148691759 L 172.119140625 295.24333351330506 L 175.341796875 289.4128235052585 L 178.564453125 282.9178799001107 L 181.787109375 275.7031079030187 L 185.009765625 267.71199088052333 L 188.232421875 258.888363389853 L 191.455078125 249.17857695672154 L 194.82421875 238.0279289731049 L 198.193359375 225.81330886890248 L 201.708984375 211.90833794224474 L 205.37109375 196.17572664951132 L 209.326171875 177.84069266385234 L 214.013671875 154.61435850180428 L 225.5859375 96.39854018424631 L 228.076171875 85.72871213567208 L 230.126953125 78.19442228049932 L 231.73828125 73.33244930687744 L 233.056640625 70.2079261636033 L 234.228515625 68.18669195368292 L 235.25390625 67.0815160445201 L 235.986328125 66.71135074055624 L 236.572265625 66.68685750614486 L 237.158203125 66.91876829027623 L 237.890625 67.59071529417173 L 238.623046875 68.7133361605072 L 239.501953125 70.69534756379437 L 240.380859375 73.4165023409019 L 241.40625 77.59060337743107 L 242.578125 83.77106504522799 L 243.75 91.55608112432266 L 245.068359375 102.34559586750845 L 246.533203125 116.96939340198203 L 248.14453125 136.32543744001296 L 249.90234375 161.2498409329981 L 251.953125 194.76363123341122 L 255.322265625 255.7728355086424 L 257.666015625 295.9553491055982 L 258.984375 314.38199737864346 L 260.009765625 325.15110219022046 L 260.7421875 330.34292246082794 L 261.328125 332.7142068742105 L 261.80281365794514 333.33333333333337 L 262.060546875 333.1435997832133 L 262.353515625 332.45432064931913 L 262.79296875 330.4315611492383 L 263.37890625 325.7884884545678 L 264.111328125 316.67689444715995 L 264.84375 303.73069363180457 L 265.72265625 283.07387402497835 L 266.89453125 247.32298617521127 L 268.359375 192.4435814364569 L 270.849609375 98.37553761116789 L 271.728515625 76.38562237951035 L 272.314453125 68.36111273103413 L 272.607421875 66.793974392591 L 272.7162954699608 66.66666666666666 L 272.900390625 67.03845973928546 L 273.193359375 69.21130839429821 L 273.6328125 76.28732505204218 L 274.21875 93.11678499371726 L 274.951171875 125.84485355591522 L 275.9765625 189.53534189739815 L 277.734375 305.0469498545693 L 278.3203125 327.4046050183697 L 278.61328125 332.5308474179951 L 278.77934092108063 333.33333333333337 L 278.90625 332.8513306326963 L 279.19921875 327.941072759626 L 279.638671875 310.2966366960519 L 280.224609375 268.27598820204395 L 281.25 161.61289111132461 L 282.12890625 82.47344104802511 L 282.6376425717932 66.66666666666666 L 282.71484375 67.06351042241485 L 283.0078125 76.00143778601614 L 283.447265625 111.51588121556658 L 284.033203125 191.9295898855414 L 284.912109375 314.57604255825174 L 285.205078125 331.97002097684503 L 285.30877448382506 333.33333333333337 L 285.498046875 328.6258962760453 L 285.791015625 302.5734815312504 L 286.23046875 227.00057351768208 L 286.962890625 86.37949994997096 L 287.2676045526484 66.66666666666666 L 287.40234375 70.8781952925404 L 287.6953125 108.94046017198939 L 288.7655334288074 333.33333333333337 L 288.8671875 329.38936571168557 L 289.16015625 275.137938077269 L 289.948108857354 66.66666666666666 L 290.0390625 71.58713045128837 L 290.33203125 149.84840963771472 L 290.771484375 318.3406273998632 L 290.90543182332027 333.33333333333337 L 291.064453125 311.0106185813323 L 291.6962638386837 66.66666666666666 L 291.796875 79.54382556045269 L 292.360562731589 333.33333333333337 L 292.529296875 284.2367490257431 L 292.92644697369354 66.66666666666666 L 293.4142782168871 333.33333333333337 L 293.5546875 272.8952558025568 L 293.839163493217 66.66666666666666 L 294.2125475239311 333.33333333333337 L 294.287109375 303.96568021522967 L 294.54325909399216 66.66666666666666 L 294.8382180618845 333.33333333333337 L 295.1029248279417 66.66666666666666 L 295.34180654365184 333.33333333333337 L 295.55846670441224 66.66666666666666 L 295.7558681842161 333.33333333333337 L 295.9364695380793 66.66666666666666 L 296.10232792428013 333.33333333333337 L 296.25517780960246 66.66666666666666 L 296.3964918545231 333.33333333333337 L 296.52752851435866 66.66666666666666 L 296.649369619118 333.33333333333337 L 296.76295030999535 66.66666666666666 L 297.061754896765 333.33333333333337 L 297.3100572998553 66.66666666666666 L 297.6421489912312 333.33333333333337 L 297.80475940562906 66.66666666666666 L 297.94638783107234 333.33333333333337 L 297.9896217714708 66.66666666666666 L 298.18108636466405 333.33333333333337 L 298.39507620411536 66.66666666666666 L 298.53515625 125.10243394004708 L 298.6454898460264 333.33333333333337 L 298.82830716742166 66.66666666666666 L 298.974609375 147.67112539533497 L 299.2329882260631 333.33333333333337 L 299.42989274116337 66.66666666666666 L 299.6029398509142 333.33333333333337 L 300 69.2240137763344" stroke-linecap="round" stroke-linejoin="round" stroke-miterlimit="10" stroke-width="2.5" stroke-dasharray=""/></g><g><path fill="none" stroke="#2d70b3" class="dcg-svg-curve" paint-order="fill stroke markers" d=" M 300 332.9863713441472 L 300 332.9863713441472 L 300.0146484375 194.33387322103226 L 300.04632207899834 333.33333333333337 L 300.19003575294556 66.66666666666666 L 300.57010725883663 333.33333333333337 L 300.7670117739369 66.66666666666666 L 300.87890625 81.15627421741934 L 301.17169283257834 333.33333333333337 L 301.3545101539736 66.66666666666666 L 301.60492379588464 333.33333333333337 L 301.81891363533595 66.66666666666666 L 302.0103782285292 333.33333333333337 L 302.05361216892766 66.66666666666666 L 302.19524059437094 333.33333333333337 L 302.3578510087688 66.66666666666666 L 302.5464790894703 333.33333333333337 L 302.938245103235 66.66666666666666 L 303.23704969000465 333.33333333333337 L 303.350630380882 66.66666666666666 L 303.47247148564134 333.33333333333337 L 303.6035081454769 66.66666666666666 L 303.74482219039754 333.33333333333337 L 303.89767207571987 66.66666666666666 L 304.0635304619207 333.33333333333337 L 304.2441318157839 66.66666666666666 L 304.44153329558776 333.33333333333337 L 304.65819345634816 66.66666666666666 L 304.8970751720583 333.33333333333337 L 305.1617819381155 66.66666666666666 L 305.45674090600784 333.33333333333337 L 305.7874524760689 66.66666666666666 L 306.160836506783 333.33333333333337 L 306.5857217831129 66.66666666666666 L 306.884765625 252.8823174238575 L 307.07355302630646 333.33333333333337 L 307.177734375 308.85830071372993 L 307.639437268411 66.66666666666666 L 307.763671875 92.13735355417103 L 308.3037361613163 333.33333333333337 L 308.49609375 291.16046987166783 L 309.09456817667973 66.66666666666666 L 309.228515625 81.6593726001368 L 310.051891142646 333.33333333333337 L 310.25390625 310.9411672399451 L 311.2344665711926 66.66666666666666 L 311.42578125 79.77427852171893 L 311.865234375 179.91548915571838 L 312.451171875 314.89421862571464 L 312.7323954473516 333.33333333333337 L 312.890625 327.7956403852812 L 313.18359375 292.28121106105266 L 314.501953125 71.37410372395473 L 314.69122551617494 66.66666666666666 L 314.794921875 68.02997902315494 L 315.087890625 85.42395744174829 L 315.52734375 139.4726976400348 L 316.69921875 303.1585679303635 L 317.138671875 329.9572429153791 L 317.3623574282068 333.33333333333337 L 317.578125 330.3456641877655 L 317.87109375 317.5265589519749 L 318.45703125 269.2369626041985 L 320.21484375 98.31477715270222 L 320.80078125 72.05892724037396 L 321.09375 67.14866936730368 L 321.22065907891937 66.66666666666666 L 321.38671875 67.46915258200488 L 321.6796875 72.59539498163033 L 322.119140625 88.0535607419963 L 322.8515625 128.96805274085227 L 325.48828125 295.29898263726307 L 326.220703125 320.3040608876431 L 326.806640625 330.7886916057018 L 327.099609375 332.9615402607145 L 327.2837045300392 333.33333333333337 L 327.392578125 333.206025607409 L 327.685546875 331.63888726896585 L 328.125 326.18610091174776 L 328.7109375 313.9065979599353 L 329.58984375 287.2983958795706 L 331.0546875 231.12344887065206 L 333.251953125 147.73984119083573 L 334.423828125 113.10052568400144 L 335.44921875 90.62417421866827 L 336.328125 77.40488370388708 L 337.060546875 70.51621143489382 L 337.646484375 67.54567935068087 L 338.0859375 66.70175244809784 L 338.37890625 66.75885124682065 L 338.671875 67.28579312578947 L 339.111328125 68.9068862452871 L 339.697265625 72.49582172185973 L 340.4296875 79.01059145436909 L 341.455078125 91.26888765377178 L 342.7734375 111.03305836604483 L 344.82421875 146.89793099251543 L 349.365234375 227.27724965638242 L 351.416015625 257.8065358657313 L 353.173828125 279.76630665301366 L 354.78515625 296.3183942150498 L 356.25 308.44391887567735 L 357.568359375 317.0871888816622 L 358.740234375 323.07426546987614 L 359.912109375 327.5757127782523 L 360.9375 330.3849699782365 L 361.81640625 332.015900403004 L 362.6953125 332.981544907484 L 363.427734375 333.31314249385514 L 364.013671875 333.2886492594438 L 364.599609375 333.02156868319315 L 365.478515625 332.1955387222274 L 366.50390625 330.63897709469643 L 367.67578125 328.15955405308034 L 368.994140625 324.58817107348005 L 370.60546875 319.27015072149214 L 372.509765625 311.8912016857988 L 375 300.90699937439047 L 378.369140625 284.5054902622162 L 393.45703125 209.11803743080313 L 397.412109375 191.7528138363785 L 401.07421875 176.9856115172884 L 404.58984375 164.01896448048223 L 407.958984375 152.68592807918614 L 411.328125 142.38237155703405 L 414.697265625 133.05492385745345 L 418.06640625 124.64285389150638 L 421.2890625 117.39402324417424 L 424.51171875 110.86757461618978 L 427.880859375 104.75666648669497 L 431.25 99.31372983577891 L 434.619140625 94.48101200197071 L 438.134765625 90.03027731090529 L 441.650390625 86.12802396633936 L 445.3125 82.58985026210752 L 449.12109375 79.42281295861017 L 452.9296875 76.72393099116931 L 456.73828125 74.44331257102915 L 460.546875 72.53608158666769 L 464.35546875 70.96195123171813 L 468.310546875 69.6411652066742 L 472.412109375 68.57115770342784 L 476.66015625 67.74690666350051 L 481.201171875 67.14603178423627 L 486.03515625 66.783144066038 L 491.162109375 66.66680638277782 L 496.728515625 66.8068035564877 L 502.880859375 67.23171158125749 L 509.619140625 67.96431262469571 L 517.236328125 69.06136610704823 L 526.025390625 70.60037080276211 L 536.572265625 72.72805160579539 L 549.90234375 75.70547932571876 L 569.677734375 80.429266388541 L 600 87.80386869228046" stroke-linecap="round" stroke-linejoin="round" stroke-miterlimit="10" stroke-width="2.5" stroke-dasharray=""/></g></g></g><g id="labels-611ca9b0"/></g></svg>